<mxfile host="app.diagrams.net" modified="2020-08-24T22:27:13.309Z" agent="5.0 (X11; Linux x86_64) AppleWebKit/537.36 (KHTML, like Gecko) Chrome/84.0.4147.125 Safari/537.36" etag="T9yg8HsH8RpU8v6yotB6" version="13.6.4" type="github">
  <diagram id="R2lEEEUBdFMjLlhIrx00" name="Page-1">
    <mxGraphModel dx="801" dy="462" grid="1" gridSize="10" guides="1" tooltips="1" connect="1" arrows="1" fold="1" page="1" pageScale="1" pageWidth="850" pageHeight="1100" math="0" shadow="0" extFonts="Permanent Marker^https://fonts.googleapis.com/css?family=Permanent+Marker">
      <root>
        <mxCell id="0" />
        <mxCell id="1" parent="0" />
        <mxCell id="QLuR-pfGvxS6wO9gUuq5-14" value="Niveles" style="shape=table;startSize=30;container=1;collapsible=1;childLayout=tableLayout;fixedRows=1;rowLines=0;fontStyle=1;align=center;resizeLast=1;" vertex="1" parent="1">
          <mxGeometry x="230" y="390" width="180" height="100" as="geometry" />
        </mxCell>
        <mxCell id="QLuR-pfGvxS6wO9gUuq5-15" value="" style="shape=partialRectangle;collapsible=0;dropTarget=0;pointerEvents=0;fillColor=none;top=0;left=0;bottom=1;right=0;points=[[0,0.5],[1,0.5]];portConstraint=eastwest;" vertex="1" parent="QLuR-pfGvxS6wO9gUuq5-14">
          <mxGeometry y="30" width="180" height="30" as="geometry" />
        </mxCell>
        <mxCell id="QLuR-pfGvxS6wO9gUuq5-16" value="PK" style="shape=partialRectangle;connectable=0;fillColor=none;top=0;left=0;bottom=0;right=0;fontStyle=1;overflow=hidden;" vertex="1" parent="QLuR-pfGvxS6wO9gUuq5-15">
          <mxGeometry width="30" height="30" as="geometry" />
        </mxCell>
        <mxCell id="QLuR-pfGvxS6wO9gUuq5-17" value="ID" style="shape=partialRectangle;connectable=0;fillColor=none;top=0;left=0;bottom=0;right=0;align=left;spacingLeft=6;fontStyle=5;overflow=hidden;" vertex="1" parent="QLuR-pfGvxS6wO9gUuq5-15">
          <mxGeometry x="30" width="150" height="30" as="geometry" />
        </mxCell>
        <mxCell id="QLuR-pfGvxS6wO9gUuq5-18" value="" style="shape=partialRectangle;collapsible=0;dropTarget=0;pointerEvents=0;fillColor=none;top=0;left=0;bottom=0;right=0;points=[[0,0.5],[1,0.5]];portConstraint=eastwest;" vertex="1" parent="QLuR-pfGvxS6wO9gUuq5-14">
          <mxGeometry y="60" width="180" height="30" as="geometry" />
        </mxCell>
        <mxCell id="QLuR-pfGvxS6wO9gUuq5-19" value="" style="shape=partialRectangle;connectable=0;fillColor=none;top=0;left=0;bottom=0;right=0;editable=1;overflow=hidden;" vertex="1" parent="QLuR-pfGvxS6wO9gUuq5-18">
          <mxGeometry width="30" height="30" as="geometry" />
        </mxCell>
        <mxCell id="QLuR-pfGvxS6wO9gUuq5-20" value="Nombre" style="shape=partialRectangle;connectable=0;fillColor=none;top=0;left=0;bottom=0;right=0;align=left;spacingLeft=6;overflow=hidden;" vertex="1" parent="QLuR-pfGvxS6wO9gUuq5-18">
          <mxGeometry x="30" width="150" height="30" as="geometry" />
        </mxCell>
        <mxCell id="QLuR-pfGvxS6wO9gUuq5-27" value="Categorias" style="shape=table;startSize=30;container=1;collapsible=1;childLayout=tableLayout;fixedRows=1;rowLines=0;fontStyle=1;align=center;resizeLast=1;" vertex="1" parent="1">
          <mxGeometry x="220" y="210" width="180" height="100" as="geometry" />
        </mxCell>
        <mxCell id="QLuR-pfGvxS6wO9gUuq5-28" value="" style="shape=partialRectangle;collapsible=0;dropTarget=0;pointerEvents=0;fillColor=none;top=0;left=0;bottom=1;right=0;points=[[0,0.5],[1,0.5]];portConstraint=eastwest;" vertex="1" parent="QLuR-pfGvxS6wO9gUuq5-27">
          <mxGeometry y="30" width="180" height="30" as="geometry" />
        </mxCell>
        <mxCell id="QLuR-pfGvxS6wO9gUuq5-29" value="PK" style="shape=partialRectangle;connectable=0;fillColor=none;top=0;left=0;bottom=0;right=0;fontStyle=1;overflow=hidden;" vertex="1" parent="QLuR-pfGvxS6wO9gUuq5-28">
          <mxGeometry width="30" height="30" as="geometry" />
        </mxCell>
        <mxCell id="QLuR-pfGvxS6wO9gUuq5-30" value="ID" style="shape=partialRectangle;connectable=0;fillColor=none;top=0;left=0;bottom=0;right=0;align=left;spacingLeft=6;fontStyle=5;overflow=hidden;" vertex="1" parent="QLuR-pfGvxS6wO9gUuq5-28">
          <mxGeometry x="30" width="150" height="30" as="geometry" />
        </mxCell>
        <mxCell id="QLuR-pfGvxS6wO9gUuq5-31" value="" style="shape=partialRectangle;collapsible=0;dropTarget=0;pointerEvents=0;fillColor=none;top=0;left=0;bottom=0;right=0;points=[[0,0.5],[1,0.5]];portConstraint=eastwest;" vertex="1" parent="QLuR-pfGvxS6wO9gUuq5-27">
          <mxGeometry y="60" width="180" height="30" as="geometry" />
        </mxCell>
        <mxCell id="QLuR-pfGvxS6wO9gUuq5-32" value="" style="shape=partialRectangle;connectable=0;fillColor=none;top=0;left=0;bottom=0;right=0;editable=1;overflow=hidden;" vertex="1" parent="QLuR-pfGvxS6wO9gUuq5-31">
          <mxGeometry width="30" height="30" as="geometry" />
        </mxCell>
        <mxCell id="QLuR-pfGvxS6wO9gUuq5-33" value="Nombre" style="shape=partialRectangle;connectable=0;fillColor=none;top=0;left=0;bottom=0;right=0;align=left;spacingLeft=6;overflow=hidden;" vertex="1" parent="QLuR-pfGvxS6wO9gUuq5-31">
          <mxGeometry x="30" width="150" height="30" as="geometry" />
        </mxCell>
        <mxCell id="QLuR-pfGvxS6wO9gUuq5-86" value="Idioma_x_Curso" style="shape=table;startSize=30;container=1;collapsible=1;childLayout=tableLayout;fixedRows=1;rowLines=0;fontStyle=1;align=center;resizeLast=1;" vertex="1" parent="1">
          <mxGeometry x="770" y="140" width="180" height="130" as="geometry" />
        </mxCell>
        <mxCell id="QLuR-pfGvxS6wO9gUuq5-87" value="" style="shape=partialRectangle;collapsible=0;dropTarget=0;pointerEvents=0;fillColor=none;top=0;left=0;bottom=1;right=0;points=[[0,0.5],[1,0.5]];portConstraint=eastwest;" vertex="1" parent="QLuR-pfGvxS6wO9gUuq5-86">
          <mxGeometry y="30" width="180" height="30" as="geometry" />
        </mxCell>
        <mxCell id="QLuR-pfGvxS6wO9gUuq5-88" value="PK" style="shape=partialRectangle;connectable=0;fillColor=none;top=0;left=0;bottom=0;right=0;fontStyle=1;overflow=hidden;" vertex="1" parent="QLuR-pfGvxS6wO9gUuq5-87">
          <mxGeometry width="30" height="30" as="geometry" />
        </mxCell>
        <mxCell id="QLuR-pfGvxS6wO9gUuq5-89" value="IDIdioma" style="shape=partialRectangle;connectable=0;fillColor=none;top=0;left=0;bottom=0;right=0;align=left;spacingLeft=6;fontStyle=5;overflow=hidden;" vertex="1" parent="QLuR-pfGvxS6wO9gUuq5-87">
          <mxGeometry x="30" width="150" height="30" as="geometry" />
        </mxCell>
        <mxCell id="QLuR-pfGvxS6wO9gUuq5-103" value="" style="shape=partialRectangle;collapsible=0;dropTarget=0;pointerEvents=0;fillColor=none;top=0;left=0;bottom=1;right=0;points=[[0,0.5],[1,0.5]];portConstraint=eastwest;" vertex="1" parent="QLuR-pfGvxS6wO9gUuq5-86">
          <mxGeometry y="60" width="180" height="30" as="geometry" />
        </mxCell>
        <mxCell id="QLuR-pfGvxS6wO9gUuq5-104" value="PK" style="shape=partialRectangle;connectable=0;fillColor=none;top=0;left=0;bottom=0;right=0;fontStyle=1;overflow=hidden;" vertex="1" parent="QLuR-pfGvxS6wO9gUuq5-103">
          <mxGeometry width="30" height="30" as="geometry" />
        </mxCell>
        <mxCell id="QLuR-pfGvxS6wO9gUuq5-105" value="IDCurso" style="shape=partialRectangle;connectable=0;fillColor=none;top=0;left=0;bottom=0;right=0;align=left;spacingLeft=6;fontStyle=5;overflow=hidden;" vertex="1" parent="QLuR-pfGvxS6wO9gUuq5-103">
          <mxGeometry x="30" width="150" height="30" as="geometry" />
        </mxCell>
        <mxCell id="QLuR-pfGvxS6wO9gUuq5-128" value="" style="shape=partialRectangle;collapsible=0;dropTarget=0;pointerEvents=0;fillColor=none;top=0;left=0;bottom=1;right=0;points=[[0,0.5],[1,0.5]];portConstraint=eastwest;" vertex="1" parent="QLuR-pfGvxS6wO9gUuq5-86">
          <mxGeometry y="90" width="180" height="30" as="geometry" />
        </mxCell>
        <mxCell id="QLuR-pfGvxS6wO9gUuq5-129" value="PK" style="shape=partialRectangle;connectable=0;fillColor=none;top=0;left=0;bottom=0;right=0;fontStyle=1;overflow=hidden;" vertex="1" parent="QLuR-pfGvxS6wO9gUuq5-128">
          <mxGeometry width="30" height="30" as="geometry" />
        </mxCell>
        <mxCell id="QLuR-pfGvxS6wO9gUuq5-130" value="IDTipo" style="shape=partialRectangle;connectable=0;fillColor=none;top=0;left=0;bottom=0;right=0;align=left;spacingLeft=6;fontStyle=5;overflow=hidden;" vertex="1" parent="QLuR-pfGvxS6wO9gUuq5-128">
          <mxGeometry x="30" width="150" height="30" as="geometry" />
        </mxCell>
        <mxCell id="QLuR-pfGvxS6wO9gUuq5-1" value="Idiomas" style="shape=table;startSize=30;container=1;collapsible=1;childLayout=tableLayout;fixedRows=1;rowLines=0;fontStyle=1;align=center;resizeLast=1;" vertex="1" parent="1">
          <mxGeometry x="800" y="360" width="180" height="100" as="geometry" />
        </mxCell>
        <mxCell id="QLuR-pfGvxS6wO9gUuq5-2" value="" style="shape=partialRectangle;collapsible=0;dropTarget=0;pointerEvents=0;fillColor=none;top=0;left=0;bottom=1;right=0;points=[[0,0.5],[1,0.5]];portConstraint=eastwest;" vertex="1" parent="QLuR-pfGvxS6wO9gUuq5-1">
          <mxGeometry y="30" width="180" height="30" as="geometry" />
        </mxCell>
        <mxCell id="QLuR-pfGvxS6wO9gUuq5-3" value="PK" style="shape=partialRectangle;connectable=0;fillColor=none;top=0;left=0;bottom=0;right=0;fontStyle=1;overflow=hidden;" vertex="1" parent="QLuR-pfGvxS6wO9gUuq5-2">
          <mxGeometry width="30" height="30" as="geometry" />
        </mxCell>
        <mxCell id="QLuR-pfGvxS6wO9gUuq5-4" value="ID" style="shape=partialRectangle;connectable=0;fillColor=none;top=0;left=0;bottom=0;right=0;align=left;spacingLeft=6;fontStyle=5;overflow=hidden;" vertex="1" parent="QLuR-pfGvxS6wO9gUuq5-2">
          <mxGeometry x="30" width="150" height="30" as="geometry" />
        </mxCell>
        <mxCell id="QLuR-pfGvxS6wO9gUuq5-5" value="" style="shape=partialRectangle;collapsible=0;dropTarget=0;pointerEvents=0;fillColor=none;top=0;left=0;bottom=0;right=0;points=[[0,0.5],[1,0.5]];portConstraint=eastwest;" vertex="1" parent="QLuR-pfGvxS6wO9gUuq5-1">
          <mxGeometry y="60" width="180" height="30" as="geometry" />
        </mxCell>
        <mxCell id="QLuR-pfGvxS6wO9gUuq5-6" value="" style="shape=partialRectangle;connectable=0;fillColor=none;top=0;left=0;bottom=0;right=0;editable=1;overflow=hidden;" vertex="1" parent="QLuR-pfGvxS6wO9gUuq5-5">
          <mxGeometry width="30" height="30" as="geometry" />
        </mxCell>
        <mxCell id="QLuR-pfGvxS6wO9gUuq5-7" value="Nombre" style="shape=partialRectangle;connectable=0;fillColor=none;top=0;left=0;bottom=0;right=0;align=left;spacingLeft=6;overflow=hidden;" vertex="1" parent="QLuR-pfGvxS6wO9gUuq5-5">
          <mxGeometry x="30" width="150" height="30" as="geometry" />
        </mxCell>
        <mxCell id="QLuR-pfGvxS6wO9gUuq5-40" value="Cursos" style="shape=table;startSize=30;container=1;collapsible=1;childLayout=tableLayout;fixedRows=1;rowLines=0;fontStyle=1;align=center;resizeLast=1;" vertex="1" parent="1">
          <mxGeometry x="510" y="280" width="180" height="220" as="geometry" />
        </mxCell>
        <mxCell id="QLuR-pfGvxS6wO9gUuq5-41" value="" style="shape=partialRectangle;collapsible=0;dropTarget=0;pointerEvents=0;fillColor=none;top=0;left=0;bottom=1;right=0;points=[[0,0.5],[1,0.5]];portConstraint=eastwest;" vertex="1" parent="QLuR-pfGvxS6wO9gUuq5-40">
          <mxGeometry y="30" width="180" height="30" as="geometry" />
        </mxCell>
        <mxCell id="QLuR-pfGvxS6wO9gUuq5-42" value="PK" style="shape=partialRectangle;connectable=0;fillColor=none;top=0;left=0;bottom=0;right=0;fontStyle=1;overflow=hidden;" vertex="1" parent="QLuR-pfGvxS6wO9gUuq5-41">
          <mxGeometry width="30" height="30" as="geometry" />
        </mxCell>
        <mxCell id="QLuR-pfGvxS6wO9gUuq5-43" value="ID" style="shape=partialRectangle;connectable=0;fillColor=none;top=0;left=0;bottom=0;right=0;align=left;spacingLeft=6;fontStyle=5;overflow=hidden;" vertex="1" parent="QLuR-pfGvxS6wO9gUuq5-41">
          <mxGeometry x="30" width="150" height="30" as="geometry" />
        </mxCell>
        <mxCell id="QLuR-pfGvxS6wO9gUuq5-44" value="" style="shape=partialRectangle;collapsible=0;dropTarget=0;pointerEvents=0;fillColor=none;top=0;left=0;bottom=0;right=0;points=[[0,0.5],[1,0.5]];portConstraint=eastwest;" vertex="1" parent="QLuR-pfGvxS6wO9gUuq5-40">
          <mxGeometry y="60" width="180" height="30" as="geometry" />
        </mxCell>
        <mxCell id="QLuR-pfGvxS6wO9gUuq5-45" value="FK" style="shape=partialRectangle;connectable=0;fillColor=none;top=0;left=0;bottom=0;right=0;editable=1;overflow=hidden;" vertex="1" parent="QLuR-pfGvxS6wO9gUuq5-44">
          <mxGeometry width="30" height="30" as="geometry" />
        </mxCell>
        <mxCell id="QLuR-pfGvxS6wO9gUuq5-46" value="IDNivel" style="shape=partialRectangle;connectable=0;fillColor=none;top=0;left=0;bottom=0;right=0;align=left;spacingLeft=6;overflow=hidden;" vertex="1" parent="QLuR-pfGvxS6wO9gUuq5-44">
          <mxGeometry x="30" width="150" height="30" as="geometry" />
        </mxCell>
        <mxCell id="QLuR-pfGvxS6wO9gUuq5-47" value="" style="shape=partialRectangle;collapsible=0;dropTarget=0;pointerEvents=0;fillColor=none;top=0;left=0;bottom=0;right=0;points=[[0,0.5],[1,0.5]];portConstraint=eastwest;" vertex="1" parent="QLuR-pfGvxS6wO9gUuq5-40">
          <mxGeometry y="90" width="180" height="30" as="geometry" />
        </mxCell>
        <mxCell id="QLuR-pfGvxS6wO9gUuq5-48" value="" style="shape=partialRectangle;connectable=0;fillColor=none;top=0;left=0;bottom=0;right=0;editable=1;overflow=hidden;" vertex="1" parent="QLuR-pfGvxS6wO9gUuq5-47">
          <mxGeometry width="30" height="30" as="geometry" />
        </mxCell>
        <mxCell id="QLuR-pfGvxS6wO9gUuq5-49" value="Nombre" style="shape=partialRectangle;connectable=0;fillColor=none;top=0;left=0;bottom=0;right=0;align=left;spacingLeft=6;overflow=hidden;" vertex="1" parent="QLuR-pfGvxS6wO9gUuq5-47">
          <mxGeometry x="30" width="150" height="30" as="geometry" />
        </mxCell>
        <mxCell id="QLuR-pfGvxS6wO9gUuq5-50" value="" style="shape=partialRectangle;collapsible=0;dropTarget=0;pointerEvents=0;fillColor=none;top=0;left=0;bottom=0;right=0;points=[[0,0.5],[1,0.5]];portConstraint=eastwest;" vertex="1" parent="QLuR-pfGvxS6wO9gUuq5-40">
          <mxGeometry y="120" width="180" height="30" as="geometry" />
        </mxCell>
        <mxCell id="QLuR-pfGvxS6wO9gUuq5-51" value="" style="shape=partialRectangle;connectable=0;fillColor=none;top=0;left=0;bottom=0;right=0;editable=1;overflow=hidden;" vertex="1" parent="QLuR-pfGvxS6wO9gUuq5-50">
          <mxGeometry width="30" height="30" as="geometry" />
        </mxCell>
        <mxCell id="QLuR-pfGvxS6wO9gUuq5-52" value="Estreno" style="shape=partialRectangle;connectable=0;fillColor=none;top=0;left=0;bottom=0;right=0;align=left;spacingLeft=6;overflow=hidden;" vertex="1" parent="QLuR-pfGvxS6wO9gUuq5-50">
          <mxGeometry x="30" width="150" height="30" as="geometry" />
        </mxCell>
        <mxCell id="QLuR-pfGvxS6wO9gUuq5-106" value="" style="shape=partialRectangle;collapsible=0;dropTarget=0;pointerEvents=0;fillColor=none;top=0;left=0;bottom=0;right=0;points=[[0,0.5],[1,0.5]];portConstraint=eastwest;" vertex="1" parent="QLuR-pfGvxS6wO9gUuq5-40">
          <mxGeometry y="150" width="180" height="30" as="geometry" />
        </mxCell>
        <mxCell id="QLuR-pfGvxS6wO9gUuq5-107" value="" style="shape=partialRectangle;connectable=0;fillColor=none;top=0;left=0;bottom=0;right=0;editable=1;overflow=hidden;" vertex="1" parent="QLuR-pfGvxS6wO9gUuq5-106">
          <mxGeometry width="30" height="30" as="geometry" />
        </mxCell>
        <mxCell id="QLuR-pfGvxS6wO9gUuq5-108" value="CostoCurso" style="shape=partialRectangle;connectable=0;fillColor=none;top=0;left=0;bottom=0;right=0;align=left;spacingLeft=6;overflow=hidden;" vertex="1" parent="QLuR-pfGvxS6wO9gUuq5-106">
          <mxGeometry x="30" width="150" height="30" as="geometry" />
        </mxCell>
        <mxCell id="QLuR-pfGvxS6wO9gUuq5-109" value="" style="shape=partialRectangle;collapsible=0;dropTarget=0;pointerEvents=0;fillColor=none;top=0;left=0;bottom=0;right=0;points=[[0,0.5],[1,0.5]];portConstraint=eastwest;" vertex="1" parent="QLuR-pfGvxS6wO9gUuq5-40">
          <mxGeometry y="180" width="180" height="30" as="geometry" />
        </mxCell>
        <mxCell id="QLuR-pfGvxS6wO9gUuq5-110" value="" style="shape=partialRectangle;connectable=0;fillColor=none;top=0;left=0;bottom=0;right=0;editable=1;overflow=hidden;" vertex="1" parent="QLuR-pfGvxS6wO9gUuq5-109">
          <mxGeometry width="30" height="30" as="geometry" />
        </mxCell>
        <mxCell id="QLuR-pfGvxS6wO9gUuq5-111" value="CostoCertificacion" style="shape=partialRectangle;connectable=0;fillColor=none;top=0;left=0;bottom=0;right=0;align=left;spacingLeft=6;overflow=hidden;" vertex="1" parent="QLuR-pfGvxS6wO9gUuq5-109">
          <mxGeometry x="30" width="150" height="30" as="geometry" />
        </mxCell>
        <mxCell id="QLuR-pfGvxS6wO9gUuq5-53" value="Categoria_x_Curso" style="shape=table;startSize=30;container=1;collapsible=1;childLayout=tableLayout;fixedRows=1;rowLines=0;fontStyle=1;align=center;resizeLast=1;" vertex="1" parent="1">
          <mxGeometry x="470" y="110" width="180" height="100" as="geometry" />
        </mxCell>
        <mxCell id="QLuR-pfGvxS6wO9gUuq5-54" value="" style="shape=partialRectangle;collapsible=0;dropTarget=0;pointerEvents=0;fillColor=none;top=0;left=0;bottom=1;right=0;points=[[0,0.5],[1,0.5]];portConstraint=eastwest;" vertex="1" parent="QLuR-pfGvxS6wO9gUuq5-53">
          <mxGeometry y="30" width="180" height="30" as="geometry" />
        </mxCell>
        <mxCell id="QLuR-pfGvxS6wO9gUuq5-55" value="PK" style="shape=partialRectangle;connectable=0;fillColor=none;top=0;left=0;bottom=0;right=0;fontStyle=1;overflow=hidden;" vertex="1" parent="QLuR-pfGvxS6wO9gUuq5-54">
          <mxGeometry width="30" height="30" as="geometry" />
        </mxCell>
        <mxCell id="QLuR-pfGvxS6wO9gUuq5-56" value="IDCategoria" style="shape=partialRectangle;connectable=0;fillColor=none;top=0;left=0;bottom=0;right=0;align=left;spacingLeft=6;fontStyle=5;overflow=hidden;" vertex="1" parent="QLuR-pfGvxS6wO9gUuq5-54">
          <mxGeometry x="30" width="150" height="30" as="geometry" />
        </mxCell>
        <mxCell id="QLuR-pfGvxS6wO9gUuq5-70" value="" style="shape=partialRectangle;collapsible=0;dropTarget=0;pointerEvents=0;fillColor=none;top=0;left=0;bottom=1;right=0;points=[[0,0.5],[1,0.5]];portConstraint=eastwest;" vertex="1" parent="QLuR-pfGvxS6wO9gUuq5-53">
          <mxGeometry y="60" width="180" height="30" as="geometry" />
        </mxCell>
        <mxCell id="QLuR-pfGvxS6wO9gUuq5-71" value="PK" style="shape=partialRectangle;connectable=0;fillColor=none;top=0;left=0;bottom=0;right=0;fontStyle=1;overflow=hidden;" vertex="1" parent="QLuR-pfGvxS6wO9gUuq5-70">
          <mxGeometry width="30" height="30" as="geometry" />
        </mxCell>
        <mxCell id="QLuR-pfGvxS6wO9gUuq5-72" value="IDCurso" style="shape=partialRectangle;connectable=0;fillColor=none;top=0;left=0;bottom=0;right=0;align=left;spacingLeft=6;fontStyle=5;overflow=hidden;" vertex="1" parent="QLuR-pfGvxS6wO9gUuq5-70">
          <mxGeometry x="30" width="150" height="30" as="geometry" />
        </mxCell>
        <mxCell id="QLuR-pfGvxS6wO9gUuq5-112" value="TiposIdioma" style="shape=table;startSize=30;container=1;collapsible=1;childLayout=tableLayout;fixedRows=1;rowLines=0;fontStyle=1;align=center;resizeLast=1;" vertex="1" parent="1">
          <mxGeometry x="1010" y="140" width="180" height="100" as="geometry" />
        </mxCell>
        <mxCell id="QLuR-pfGvxS6wO9gUuq5-113" value="" style="shape=partialRectangle;collapsible=0;dropTarget=0;pointerEvents=0;fillColor=none;top=0;left=0;bottom=1;right=0;points=[[0,0.5],[1,0.5]];portConstraint=eastwest;" vertex="1" parent="QLuR-pfGvxS6wO9gUuq5-112">
          <mxGeometry y="30" width="180" height="30" as="geometry" />
        </mxCell>
        <mxCell id="QLuR-pfGvxS6wO9gUuq5-114" value="PK" style="shape=partialRectangle;connectable=0;fillColor=none;top=0;left=0;bottom=0;right=0;fontStyle=1;overflow=hidden;" vertex="1" parent="QLuR-pfGvxS6wO9gUuq5-113">
          <mxGeometry width="30" height="30" as="geometry" />
        </mxCell>
        <mxCell id="QLuR-pfGvxS6wO9gUuq5-115" value="ID" style="shape=partialRectangle;connectable=0;fillColor=none;top=0;left=0;bottom=0;right=0;align=left;spacingLeft=6;fontStyle=5;overflow=hidden;" vertex="1" parent="QLuR-pfGvxS6wO9gUuq5-113">
          <mxGeometry x="30" width="150" height="30" as="geometry" />
        </mxCell>
        <mxCell id="QLuR-pfGvxS6wO9gUuq5-116" value="" style="shape=partialRectangle;collapsible=0;dropTarget=0;pointerEvents=0;fillColor=none;top=0;left=0;bottom=0;right=0;points=[[0,0.5],[1,0.5]];portConstraint=eastwest;" vertex="1" parent="QLuR-pfGvxS6wO9gUuq5-112">
          <mxGeometry y="60" width="180" height="30" as="geometry" />
        </mxCell>
        <mxCell id="QLuR-pfGvxS6wO9gUuq5-117" value="" style="shape=partialRectangle;connectable=0;fillColor=none;top=0;left=0;bottom=0;right=0;editable=1;overflow=hidden;" vertex="1" parent="QLuR-pfGvxS6wO9gUuq5-116">
          <mxGeometry width="30" height="30" as="geometry" />
        </mxCell>
        <mxCell id="QLuR-pfGvxS6wO9gUuq5-118" value="Nombre" style="shape=partialRectangle;connectable=0;fillColor=none;top=0;left=0;bottom=0;right=0;align=left;spacingLeft=6;overflow=hidden;" vertex="1" parent="QLuR-pfGvxS6wO9gUuq5-116">
          <mxGeometry x="30" width="150" height="30" as="geometry" />
        </mxCell>
        <mxCell id="QLuR-pfGvxS6wO9gUuq5-73" value="TiposContenido" style="shape=table;startSize=30;container=1;collapsible=1;childLayout=tableLayout;fixedRows=1;rowLines=0;fontStyle=1;align=center;resizeLast=1;" vertex="1" parent="1">
          <mxGeometry x="310" y="540" width="180" height="100" as="geometry" />
        </mxCell>
        <mxCell id="QLuR-pfGvxS6wO9gUuq5-74" value="" style="shape=partialRectangle;collapsible=0;dropTarget=0;pointerEvents=0;fillColor=none;top=0;left=0;bottom=1;right=0;points=[[0,0.5],[1,0.5]];portConstraint=eastwest;" vertex="1" parent="QLuR-pfGvxS6wO9gUuq5-73">
          <mxGeometry y="30" width="180" height="30" as="geometry" />
        </mxCell>
        <mxCell id="QLuR-pfGvxS6wO9gUuq5-75" value="PK" style="shape=partialRectangle;connectable=0;fillColor=none;top=0;left=0;bottom=0;right=0;fontStyle=1;overflow=hidden;" vertex="1" parent="QLuR-pfGvxS6wO9gUuq5-74">
          <mxGeometry width="30" height="30" as="geometry" />
        </mxCell>
        <mxCell id="QLuR-pfGvxS6wO9gUuq5-76" value="ID" style="shape=partialRectangle;connectable=0;fillColor=none;top=0;left=0;bottom=0;right=0;align=left;spacingLeft=6;fontStyle=5;overflow=hidden;" vertex="1" parent="QLuR-pfGvxS6wO9gUuq5-74">
          <mxGeometry x="30" width="150" height="30" as="geometry" />
        </mxCell>
        <mxCell id="QLuR-pfGvxS6wO9gUuq5-77" value="" style="shape=partialRectangle;collapsible=0;dropTarget=0;pointerEvents=0;fillColor=none;top=0;left=0;bottom=0;right=0;points=[[0,0.5],[1,0.5]];portConstraint=eastwest;" vertex="1" parent="QLuR-pfGvxS6wO9gUuq5-73">
          <mxGeometry y="60" width="180" height="30" as="geometry" />
        </mxCell>
        <mxCell id="QLuR-pfGvxS6wO9gUuq5-78" value="" style="shape=partialRectangle;connectable=0;fillColor=none;top=0;left=0;bottom=0;right=0;editable=1;overflow=hidden;" vertex="1" parent="QLuR-pfGvxS6wO9gUuq5-77">
          <mxGeometry width="30" height="30" as="geometry" />
        </mxCell>
        <mxCell id="QLuR-pfGvxS6wO9gUuq5-79" value="Nombre" style="shape=partialRectangle;connectable=0;fillColor=none;top=0;left=0;bottom=0;right=0;align=left;spacingLeft=6;overflow=hidden;" vertex="1" parent="QLuR-pfGvxS6wO9gUuq5-77">
          <mxGeometry x="30" width="150" height="30" as="geometry" />
        </mxCell>
        <mxCell id="QLuR-pfGvxS6wO9gUuq5-125" value="" style="edgeStyle=entityRelationEdgeStyle;fontSize=12;html=1;endArrow=ERoneToMany;exitX=1;exitY=0.5;exitDx=0;exitDy=0;" edge="1" parent="1" source="QLuR-pfGvxS6wO9gUuq5-15" target="QLuR-pfGvxS6wO9gUuq5-44">
          <mxGeometry width="100" height="100" relative="1" as="geometry">
            <mxPoint x="500" y="470" as="sourcePoint" />
            <mxPoint x="600" y="370" as="targetPoint" />
          </mxGeometry>
        </mxCell>
        <mxCell id="QLuR-pfGvxS6wO9gUuq5-126" value="" style="edgeStyle=entityRelationEdgeStyle;fontSize=12;html=1;endArrow=ERmany;startArrow=ERmany;entryX=0;entryY=0.5;entryDx=0;entryDy=0;exitX=1;exitY=0.5;exitDx=0;exitDy=0;" edge="1" parent="1" source="QLuR-pfGvxS6wO9gUuq5-28" target="QLuR-pfGvxS6wO9gUuq5-54">
          <mxGeometry width="100" height="100" relative="1" as="geometry">
            <mxPoint x="500" y="360" as="sourcePoint" />
            <mxPoint x="600" y="260" as="targetPoint" />
          </mxGeometry>
        </mxCell>
        <mxCell id="QLuR-pfGvxS6wO9gUuq5-127" value="" style="edgeStyle=entityRelationEdgeStyle;fontSize=12;html=1;endArrow=ERmany;startArrow=ERmany;entryX=0;entryY=0.5;entryDx=0;entryDy=0;exitX=1;exitY=0.5;exitDx=0;exitDy=0;" edge="1" parent="1" source="QLuR-pfGvxS6wO9gUuq5-70" target="QLuR-pfGvxS6wO9gUuq5-41">
          <mxGeometry width="100" height="100" relative="1" as="geometry">
            <mxPoint x="480" y="165" as="sourcePoint" />
            <mxPoint x="470" y="330" as="targetPoint" />
          </mxGeometry>
        </mxCell>
        <mxCell id="QLuR-pfGvxS6wO9gUuq5-131" value="" style="edgeStyle=entityRelationEdgeStyle;fontSize=12;html=1;endArrow=ERoneToMany;entryX=0;entryY=0.5;entryDx=0;entryDy=0;exitX=1;exitY=0.5;exitDx=0;exitDy=0;" edge="1" parent="1" source="QLuR-pfGvxS6wO9gUuq5-128" target="QLuR-pfGvxS6wO9gUuq5-113">
          <mxGeometry width="100" height="100" relative="1" as="geometry">
            <mxPoint x="900" y="320" as="sourcePoint" />
            <mxPoint x="1000" y="220" as="targetPoint" />
          </mxGeometry>
        </mxCell>
        <mxCell id="QLuR-pfGvxS6wO9gUuq5-132" value="" style="edgeStyle=entityRelationEdgeStyle;fontSize=12;html=1;endArrow=ERoneToMany;entryX=0;entryY=0.5;entryDx=0;entryDy=0;exitX=1;exitY=0.5;exitDx=0;exitDy=0;" edge="1" parent="1" source="QLuR-pfGvxS6wO9gUuq5-2" target="QLuR-pfGvxS6wO9gUuq5-87">
          <mxGeometry width="100" height="100" relative="1" as="geometry">
            <mxPoint x="700" y="240" as="sourcePoint" />
            <mxPoint x="760" y="180" as="targetPoint" />
          </mxGeometry>
        </mxCell>
        <mxCell id="QLuR-pfGvxS6wO9gUuq5-134" value="Clases" style="shape=table;startSize=30;container=1;collapsible=1;childLayout=tableLayout;fixedRows=1;rowLines=0;fontStyle=1;align=center;resizeLast=1;" vertex="1" parent="1">
          <mxGeometry x="730" y="500" width="180" height="190" as="geometry" />
        </mxCell>
        <mxCell id="QLuR-pfGvxS6wO9gUuq5-135" value="" style="shape=partialRectangle;collapsible=0;dropTarget=0;pointerEvents=0;fillColor=none;top=0;left=0;bottom=1;right=0;points=[[0,0.5],[1,0.5]];portConstraint=eastwest;" vertex="1" parent="QLuR-pfGvxS6wO9gUuq5-134">
          <mxGeometry y="30" width="180" height="30" as="geometry" />
        </mxCell>
        <mxCell id="QLuR-pfGvxS6wO9gUuq5-136" value="PK" style="shape=partialRectangle;connectable=0;fillColor=none;top=0;left=0;bottom=0;right=0;fontStyle=1;overflow=hidden;" vertex="1" parent="QLuR-pfGvxS6wO9gUuq5-135">
          <mxGeometry width="30" height="30" as="geometry" />
        </mxCell>
        <mxCell id="QLuR-pfGvxS6wO9gUuq5-137" value="ID" style="shape=partialRectangle;connectable=0;fillColor=none;top=0;left=0;bottom=0;right=0;align=left;spacingLeft=6;fontStyle=5;overflow=hidden;" vertex="1" parent="QLuR-pfGvxS6wO9gUuq5-135">
          <mxGeometry x="30" width="150" height="30" as="geometry" />
        </mxCell>
        <mxCell id="QLuR-pfGvxS6wO9gUuq5-138" value="" style="shape=partialRectangle;collapsible=0;dropTarget=0;pointerEvents=0;fillColor=none;top=0;left=0;bottom=0;right=0;points=[[0,0.5],[1,0.5]];portConstraint=eastwest;" vertex="1" parent="QLuR-pfGvxS6wO9gUuq5-134">
          <mxGeometry y="60" width="180" height="30" as="geometry" />
        </mxCell>
        <mxCell id="QLuR-pfGvxS6wO9gUuq5-139" value="FK" style="shape=partialRectangle;connectable=0;fillColor=none;top=0;left=0;bottom=0;right=0;editable=1;overflow=hidden;" vertex="1" parent="QLuR-pfGvxS6wO9gUuq5-138">
          <mxGeometry width="30" height="30" as="geometry" />
        </mxCell>
        <mxCell id="QLuR-pfGvxS6wO9gUuq5-140" value="IDCurso" style="shape=partialRectangle;connectable=0;fillColor=none;top=0;left=0;bottom=0;right=0;align=left;spacingLeft=6;overflow=hidden;" vertex="1" parent="QLuR-pfGvxS6wO9gUuq5-138">
          <mxGeometry x="30" width="150" height="30" as="geometry" />
        </mxCell>
        <mxCell id="QLuR-pfGvxS6wO9gUuq5-141" value="" style="shape=partialRectangle;collapsible=0;dropTarget=0;pointerEvents=0;fillColor=none;top=0;left=0;bottom=0;right=0;points=[[0,0.5],[1,0.5]];portConstraint=eastwest;" vertex="1" parent="QLuR-pfGvxS6wO9gUuq5-134">
          <mxGeometry y="90" width="180" height="30" as="geometry" />
        </mxCell>
        <mxCell id="QLuR-pfGvxS6wO9gUuq5-142" value="" style="shape=partialRectangle;connectable=0;fillColor=none;top=0;left=0;bottom=0;right=0;editable=1;overflow=hidden;" vertex="1" parent="QLuR-pfGvxS6wO9gUuq5-141">
          <mxGeometry width="30" height="30" as="geometry" />
        </mxCell>
        <mxCell id="QLuR-pfGvxS6wO9gUuq5-143" value="Nombre" style="shape=partialRectangle;connectable=0;fillColor=none;top=0;left=0;bottom=0;right=0;align=left;spacingLeft=6;overflow=hidden;" vertex="1" parent="QLuR-pfGvxS6wO9gUuq5-141">
          <mxGeometry x="30" width="150" height="30" as="geometry" />
        </mxCell>
        <mxCell id="QLuR-pfGvxS6wO9gUuq5-144" value="" style="shape=partialRectangle;collapsible=0;dropTarget=0;pointerEvents=0;fillColor=none;top=0;left=0;bottom=0;right=0;points=[[0,0.5],[1,0.5]];portConstraint=eastwest;" vertex="1" parent="QLuR-pfGvxS6wO9gUuq5-134">
          <mxGeometry y="120" width="180" height="30" as="geometry" />
        </mxCell>
        <mxCell id="QLuR-pfGvxS6wO9gUuq5-145" value="" style="shape=partialRectangle;connectable=0;fillColor=none;top=0;left=0;bottom=0;right=0;editable=1;overflow=hidden;" vertex="1" parent="QLuR-pfGvxS6wO9gUuq5-144">
          <mxGeometry width="30" height="30" as="geometry" />
        </mxCell>
        <mxCell id="QLuR-pfGvxS6wO9gUuq5-146" value="Duracion" style="shape=partialRectangle;connectable=0;fillColor=none;top=0;left=0;bottom=0;right=0;align=left;spacingLeft=6;overflow=hidden;" vertex="1" parent="QLuR-pfGvxS6wO9gUuq5-144">
          <mxGeometry x="30" width="150" height="30" as="geometry" />
        </mxCell>
        <mxCell id="QLuR-pfGvxS6wO9gUuq5-148" value="" style="shape=partialRectangle;collapsible=0;dropTarget=0;pointerEvents=0;fillColor=none;top=0;left=0;bottom=0;right=0;points=[[0,0.5],[1,0.5]];portConstraint=eastwest;" vertex="1" parent="QLuR-pfGvxS6wO9gUuq5-134">
          <mxGeometry y="150" width="180" height="30" as="geometry" />
        </mxCell>
        <mxCell id="QLuR-pfGvxS6wO9gUuq5-149" value="" style="shape=partialRectangle;connectable=0;fillColor=none;top=0;left=0;bottom=0;right=0;editable=1;overflow=hidden;" vertex="1" parent="QLuR-pfGvxS6wO9gUuq5-148">
          <mxGeometry width="30" height="30" as="geometry" />
        </mxCell>
        <mxCell id="QLuR-pfGvxS6wO9gUuq5-150" value="Numero" style="shape=partialRectangle;connectable=0;fillColor=none;top=0;left=0;bottom=0;right=0;align=left;spacingLeft=6;overflow=hidden;" vertex="1" parent="QLuR-pfGvxS6wO9gUuq5-148">
          <mxGeometry x="30" width="150" height="30" as="geometry" />
        </mxCell>
        <mxCell id="QLuR-pfGvxS6wO9gUuq5-147" value="" style="edgeStyle=entityRelationEdgeStyle;fontSize=12;html=1;endArrow=ERmany;startArrow=ERmany;entryX=0;entryY=0.5;entryDx=0;entryDy=0;exitX=1;exitY=0.5;exitDx=0;exitDy=0;" edge="1" parent="1" source="QLuR-pfGvxS6wO9gUuq5-41" target="QLuR-pfGvxS6wO9gUuq5-103">
          <mxGeometry width="100" height="100" relative="1" as="geometry">
            <mxPoint x="690" y="310" as="sourcePoint" />
            <mxPoint x="790" y="210" as="targetPoint" />
          </mxGeometry>
        </mxCell>
      </root>
    </mxGraphModel>
  </diagram>
</mxfile>
